<?xml version="1.0" standalone="no"?><!DOCTYPE svg PUBLIC "-//W3C//DTD SVG 1.1//EN" "http://www.w3.org/Graphics/SVG/1.1/DTD/svg11.dtd"><svg class="icon" width="200px" height="200.00px" viewBox="0 0 1024 1024" version="1.1" xmlns="http://www.w3.org/2000/svg"><path d="M384 285.866667c0-4.693333 3.84-8.533333 8.533333-8.533334h238.933334c4.693333 0 8.533333 3.84 8.533333 8.533334v46.933333a8.533333 8.533333 0 0 1-8.533333 8.533333H392.533333a8.533333 8.533333 0 0 1-8.533333-8.533333V285.866667zM392.533333 661.333333a8.533333 8.533333 0 0 0-8.533333 8.533334v46.933333c0 4.693333 3.84 8.533333 8.533333 8.533333h238.933334a8.533333 8.533333 0 0 0 8.533333-8.533333v-46.933333a8.533333 8.533333 0 0 0-8.533333-8.533334H392.533333zM170.666667 160C170.666667 118.784 204.117333 85.333333 245.333333 85.333333h533.333334c41.216 0 74.666667 33.450667 74.666666 74.666667v704A74.666667 74.666667 0 0 1 778.666667 938.666667H245.333333A74.666667 74.666667 0 0 1 170.666667 864V160z m74.666666-10.666667a10.666667 10.666667 0 0 0-10.666666 10.666667v320h554.666666v-320a10.666667 10.666667 0 0 0-10.666666-10.666667H245.333333z m544 394.666667h-554.666666v320c0 5.888 4.778667 10.666667 10.666666 10.666667h533.333334a10.666667 10.666667 0 0 0 10.666666-10.666667v-320z" /></svg>