<?xml version="1.0" standalone="no"?><!DOCTYPE svg PUBLIC "-//W3C//DTD SVG 1.1//EN" "http://www.w3.org/Graphics/SVG/1.1/DTD/svg11.dtd"><svg class="icon" width="200px" height="200.00px" viewBox="0 0 1024 1024" version="1.1" xmlns="http://www.w3.org/2000/svg"><path d="M373.333333 512a32 32 0 0 0-64 0 202.666667 202.666667 0 1 0 405.333334 0 32 32 0 0 0-64 0 138.666667 138.666667 0 0 1-277.333334 0zM512 96c-229.76 0-416 186.24-416 416a414.293333 414.293333 0 0 0 50.005333 197.888l-32.725333 200.832 200.832-32.725333A414.293333 414.293333 0 0 0 512 928c229.76 0 416-186.24 416-416S741.76 96 512 96zM160 512a352 352 0 1 1 176.042667 304.938667l-9.898667-5.717334-135.424 22.058667 22.058667-135.424-5.717334-9.898667A350.250667 350.250667 0 0 1 160 512z" /></svg>