<?xml version="1.0" standalone="no"?><!DOCTYPE svg PUBLIC "-//W3C//DTD SVG 1.1//EN" "http://www.w3.org/Graphics/SVG/1.1/DTD/svg11.dtd"><svg class="icon" width="200px" height="200.00px" viewBox="0 0 1024 1024" version="1.1" xmlns="http://www.w3.org/2000/svg"><path d="M592.682667 85.333333a29.866667 29.866667 0 0 1 17.536 5.674667l3.584 3.072L827.733333 308.010667a115.2 115.2 0 0 1 33.450667 73.173333l0.298667 8.277333V806.4a115.2 115.2 0 0 1-107.904 114.986667l-7.253334 0.213333h-486.4a115.2 115.2 0 0 1-114.986666-107.946667l-0.256-7.253333V200.533333a115.2 115.2 0 0 1 107.946666-114.986666L259.84 85.333333h332.8z m-29.866667 59.690667l-302.933333 0.042667a55.466667 55.466667 0 0 0-55.168 49.792l-0.298667 5.674666v605.866667a55.466667 55.466667 0 0 0 49.792 55.168l5.674667 0.298667h486.4a55.466667 55.466667 0 0 0 55.210666-49.792l0.256-5.674667V389.461333L801.408 384h-208.725333a29.866667 29.866667 0 0 1-29.568-25.813333L562.773333 354.133333V145.024z m-22.613333 299.605333a29.866667 29.866667 0 0 1 22.485333 31.872l-0.768 4.352-59.733333 238.933334a29.866667 29.866667 0 0 1-58.666667-10.154667l0.725333-4.352 59.733334-238.933333a29.866667 29.866667 0 0 1 36.266666-21.76z m-142.165334 5.632a29.866667 29.866667 0 0 1 7.168 38.357334l-2.517333 3.626666L332.245333 580.266667l70.442667 88.064a29.866667 29.866667 0 0 1-1.408 38.954666l-3.242667 2.986667a29.866667 29.866667 0 0 1-38.997333-1.408l-2.986667-3.242667-85.333333-106.666666a29.866667 29.866667 0 0 1-2.56-33.493334l2.56-3.84 85.333333-106.666666a29.866667 29.866667 0 0 1 41.984-4.650667z m249.088 1.450667l3.029334 3.242667 85.333333 106.666666a29.866667 29.866667 0 0 1 2.56 33.493334l-2.56 3.84-85.333333 106.666666a29.866667 29.866667 0 0 1-49.152-33.706666l2.517333-3.626667 70.357333-88.064-70.4-87.978667a29.866667 29.866667 0 0 1 1.450667-38.954666l3.242667-2.986667a29.866667 29.866667 0 0 1 38.954666 1.408z m-24.618666-264.490667l0.042666 137.045334h136.96l-136.96-137.045334z" /></svg>