<?xml version="1.0" standalone="no"?><!DOCTYPE svg PUBLIC "-//W3C//DTD SVG 1.1//EN" "http://www.w3.org/Graphics/SVG/1.1/DTD/svg11.dtd"><svg t="1772519204131" class="icon" viewBox="0 0 1024 1024" version="1.1" xmlns="http://www.w3.org/2000/svg" p-id="4447" xmlns:xlink="http://www.w3.org/1999/xlink" width="200" height="200"><path d="M909.23008 114.03264a40.96 40.96 0 0 1 10.15808 42.5984l-266.11712 778.24a40.96 40.96 0 0 1-78.47936-3.31776l-96.17408-384.12288-384-74.30144a40.96 40.96 0 0 1-6.51264-78.6432l778.24-289.50528a40.96 40.96 0 0 1 42.88512 9.0112z m-351.8464 410.8288l63.20128 252.39552 193.3312-565.37088-560.45568 208.52736 245.10464 47.43168 100.51584-100.47488a40.96 40.96 0 1 1 57.91744 57.91744l-99.57376 99.57376z" fill="#000000" fill-opacity=".85" p-id="4448"></path></svg>