<?xml version="1.0" standalone="no"?><!DOCTYPE svg PUBLIC "-//W3C//DTD SVG 1.1//EN" "http://www.w3.org/Graphics/SVG/1.1/DTD/svg11.dtd"><svg class="icon" width="200px" height="200.00px" viewBox="0 0 1024 1024" version="1.1" xmlns="http://www.w3.org/2000/svg"><path d="M227.552 113.792h568.896c31.424 0 56.896 25.472 56.896 56.896v256a28.448 28.448 0 1 1-56.896 0v-256H227.552v682.656h199.104a28.448 28.448 0 1 1 0 56.896H227.552a56.896 56.896 0 0 1-56.896-56.896V170.688c0-31.424 25.472-56.896 56.896-56.896zM739.552 910.208a170.656 170.656 0 1 0 0-341.312 170.656 170.656 0 0 0 0 341.312z m0 56.896a227.552 227.552 0 1 1 0-455.136 227.552 227.552 0 0 1 0 455.136zM711.104 655.872a28.448 28.448 0 1 1 56.896 0v72.896l55.136 55.136a28.448 28.448 0 0 1-40.224 40.224l-55.136-55.136a56.672 56.672 0 0 1-16.672-40.224v-72.896zM312.896 284.448h341.344a28.448 28.448 0 1 1 0 56.896H312.896a28.448 28.448 0 1 1 0-56.896z m0 113.76h227.552a28.448 28.448 0 1 1 0 56.896H312.896a28.448 28.448 0 1 1 0-56.896z m0 113.792h113.792a28.448 28.448 0 1 1 0 56.896H312.896a28.448 28.448 0 1 1 0-56.896z" /></svg>